<svg width="32" height="32" viewBox="0 0 32 32" fill="none" xmlns="http://www.w3.org/2000/svg">
<path fill-rule="evenodd" clip-rule="evenodd" d="M15 3C15.5523 3 16 3.44772 16 4V6H19V4C19 3.44772 19.4477 3 20 3C20.5523 3 21 3.44772 21 4V6.20703C23.3085 6.85996 25 8.98245 25 11.5C25 12.0523 24.5523 12.5 24 12.5C23.4477 12.5 23 12.0523 23 11.5C23 9.567 21.433 8 19.5 8H15H14C12.5834 8 11.581 8.00078 10.7974 8.0648C10.0255 8.12787 9.55435 8.24729 9.18404 8.43597C8.43139 8.81947 7.81947 9.43139 7.43597 10.184C7.24729 10.5543 7.12787 11.0255 7.0648 11.7974C7.00078 12.581 7 13.5834 7 15V16V20.5C7 22.433 8.567 24 10.5 24C11.0523 24 11.5 24.4477 11.5 25C11.5 25.5523 11.0523 26 10.5 26C7.98245 26 5.85996 24.3085 5.20703 22H3C2.44772 22 2 21.5523 2 21C2 20.4477 2.44772 20 3 20H5V17H3C2.44772 17 2 16.5523 2 16C2 15.4477 2.44772 15 3 15H5L5 14.9562C4.99999 13.777 4.99999 12.8066 5.04626 12H3C2.44772 12 2 11.5523 2 11C2 10.4477 2.44772 10 3 10H5.36062C5.43883 9.74984 5.53509 9.50936 5.65396 9.27606C6.2292 8.14708 7.14708 7.2292 8.27606 6.65396C8.50936 6.53509 8.74984 6.43883 9 6.36062V4C9 3.44772 9.44772 3 10 3C10.5523 3 11 3.44772 11 4V6.04626C11.8066 5.99999 12.777 5.99999 13.9562 6L14 6V4C14 3.44772 14.4477 3 15 3ZM20.4929 14C21.0452 14 21.4929 14.4477 21.4929 15V20.4935H26.9858C27.5381 20.4935 27.9858 20.9412 27.9858 21.4935C27.9858 22.0458 27.5381 22.4935 26.9858 22.4935H21.4929V27.9863C21.4929 28.5386 21.0452 28.9863 20.4929 28.9863C19.9406 28.9863 19.4929 28.5386 19.4929 27.9863V22.4935H14C13.4477 22.4935 13 22.0458 13 21.4935C13 20.9412 13.4477 20.4935 14 20.4935H19.4929V15C19.4929 14.4477 19.9406 14 20.4929 14Z" fill="white"/>
<path d="M15 12H14.2C13.0799 12 12.5198 12 12.092 12.218C11.7157 12.4097 11.4097 12.7157 11.218 13.092C11 13.5198 11 14.0799 11 15.2V16" stroke="white" stroke-width="2" stroke-linecap="round"/>
</svg>
