<svg width="42" height="42" viewBox="0 0 42 42" fill="none" xmlns="http://www.w3.org/2000/svg">
<path fill-rule="evenodd" clip-rule="evenodd" d="M18.401 6C16.755 6 15.249 6.92616 14.5063 8.39515C14.104 9.19094 13.2881 9.69266 12.3964 9.69266H12.0036L11.9966 9.69266C8.68554 9.69455 6.00188 12.3782 6 15.6892V15.6963V21.4V21.4444V21.4444C5.99999 23.087 5.99999 24.3809 6.08507 25.4222C6.17186 26.4846 6.35217 27.3717 6.76295 28.1779C7.43407 29.4951 8.50493 30.5659 9.82207 31.237C10.6283 31.6478 11.5154 31.8281 12.5778 31.9149C13.6191 32 14.913 32 16.5556 32H16.6H21H24C24.5523 32 25 31.5523 25 31C25 30.4477 24.5523 30 24 30H21H16.6C14.9033 30 13.691 29.9992 12.7406 29.9216C11.802 29.8449 11.2073 29.6982 10.73 29.455C9.78924 28.9757 9.02433 28.2108 8.54497 27.27C8.30179 26.7927 8.15512 26.198 8.07842 25.2594C8.00078 24.309 8 23.0967 8 21.4V15.6963L8 15.6904C8.00126 13.483 9.79036 11.6939 11.9977 11.6927L12.0036 11.6927H12.3964C14.0425 11.6927 15.5485 10.7665 16.2912 9.29751C16.6935 8.50172 17.5093 8 18.401 8H23.5977C24.4894 8 25.3053 8.50172 25.7076 9.29751C26.4503 10.7665 27.9563 11.6927 29.6024 11.6927H29.9956L30.0028 11.6927C32.2098 11.6942 33.9985 13.4829 34 15.6899L34 15.6971V16C34 16.5523 34.4477 17 35 17C35.5523 17 36 16.5523 36 16V15.6971L36 15.6885C35.9977 12.378 33.3146 9.69498 30.0042 9.69266L29.9956 9.69266H29.6024C28.7107 9.69266 27.8948 9.19094 27.4925 8.39515C26.7498 6.92616 25.2438 6 23.5977 6H18.401ZM21 23.8C18.7909 23.8 17 22.0091 17 19.8C17 17.5909 18.7909 15.8 21 15.8C23.2091 15.8 25 17.5909 25 19.8C25 22.0091 23.2091 23.8 21 23.8ZM15 19.8C15 16.4863 17.6863 13.8 21 13.8C24.3137 13.8 27 16.4863 27 19.8C27 23.1137 24.3137 25.8 21 25.8C17.6863 25.8 15 23.1137 15 19.8Z" fill="white"/>
<path fill-rule="evenodd" clip-rule="evenodd" d="M35 21C35 20.4477 34.5523 20 34 20C33.4477 20 33 20.4477 33 21V26H28C27.4477 26 27 26.4477 27 27C27 27.5523 27.4477 28 28 28H33V33C33 33.5523 33.4477 34 34 34C34.5523 34 35 33.5523 35 33V28H40C40.5523 28 41 27.5523 41 27C41 26.4477 40.5523 26 40 26H35V21Z" fill="white"/>
</svg>
