<svg width="24" height="24" viewBox="0 0 24 24" fill="none" xmlns="http://www.w3.org/2000/svg">
<g clip-path="url(#clip0_318_4469)">
<path fill-rule="evenodd" clip-rule="evenodd" d="M1.70008 12.0002C1.70008 6.31179 6.31158 1.7004 12.0002 1.7004C17.6888 1.7004 22.3003 6.31179 22.3003 12.0002C22.3003 17.6886 17.6888 22.3 12.0002 22.3C6.31158 22.3 1.70008 17.6886 1.70008 12.0002ZM12.0002 0.000396729C5.37274 0.000396729 7.62939e-05 5.37286 7.62939e-05 12.0002C7.62939e-05 18.6275 5.37274 24 12.0002 24C18.6277 24 24.0003 18.6275 24.0003 12.0002C24.0003 5.37286 18.6277 0.000396729 12.0002 0.000396729ZM11.9978 6C12.4673 6 12.8478 6.38056 12.8478 6.85V11.1479L17.1468 11.1483C17.6162 11.1483 17.9968 11.5289 17.9967 11.9983C17.9967 12.4678 17.6161 12.8483 17.1467 12.8483L12.8478 12.8479V17.1466C12.8478 17.6161 12.4673 17.9966 11.9978 17.9966C11.5284 17.9966 11.1478 17.6161 11.1478 17.1466V12.8478L6.84993 12.8475C6.38049 12.8474 5.99996 12.4668 6 11.9974C6.00004 11.528 6.38062 11.1474 6.85007 11.1475L11.1478 11.1478V6.85C11.1478 6.38056 11.5284 6 11.9978 6Z" fill="white"/>
</g>
<defs>
<clipPath id="clip0_318_4469">
<rect width="24" height="24" fill="white"/>
</clipPath>
</defs>
</svg>
