<svg width="18" height="18" viewBox="0 0 18 18" fill="none" xmlns="http://www.w3.org/2000/svg">
<path d="M6.57574 12.5757C6.34142 12.8101 6.34142 13.1899 6.57574 13.4243C6.81005 13.6586 7.18995 13.6586 7.42426 13.4243L6.57574 12.5757ZM11 9L11.4243 9.42426C11.5368 9.31174 11.6 9.15913 11.6 9C11.6 8.84087 11.5368 8.68826 11.4243 8.57574L11 9ZM7.42426 4.57574C7.18995 4.34142 6.81005 4.34142 6.57574 4.57574C6.34142 4.81005 6.34142 5.18995 6.57574 5.42426L7.42426 4.57574ZM7.42426 13.4243L11.4243 9.42426L10.5757 8.57574L6.57574 12.5757L7.42426 13.4243ZM11.4243 8.57574L7.42426 4.57574L6.57574 5.42426L10.5757 9.42426L11.4243 8.57574Z" fill="white"/>
</svg>
