<svg width="18" height="18" viewBox="0 0 18 18" fill="none" xmlns="http://www.w3.org/2000/svg">
<path d="M3.62658 7.33473C3.30937 6.98867 2.77169 6.9653 2.42563 7.28251C2.07958 7.59972 2.05621 8.13741 2.37342 8.48346L3.62658 7.33473ZM7.66667 13L7.04009 13.5744C7.20108 13.75 7.42841 13.85 7.66667 13.85C7.90493 13.85 8.13225 13.75 8.29325 13.5744L7.66667 13ZM15.6266 5.57437C15.9438 5.22831 15.9204 4.69063 15.5744 4.37342C15.2283 4.05621 14.6906 4.07958 14.3734 4.42563L15.6266 5.57437ZM2.37342 8.48346L7.04009 13.5744L8.29325 12.4256L3.62658 7.33473L2.37342 8.48346ZM8.29325 13.5744L15.6266 5.57437L14.3734 4.42563L7.04009 12.4256L8.29325 13.5744Z" fill="#32D74B"/>
</svg>
