<svg width="24" height="24" viewBox="0 0 24 24" fill="none" xmlns="http://www.w3.org/2000/svg">
<path d="M3.73715 10.6879C3.36396 10.2808 2.73139 10.2533 2.32428 10.6265C1.91716 10.9997 1.88965 11.6322 2.26285 12.0394L3.73715 10.6879ZM10 19L9.26285 19.6757C9.45226 19.8824 9.71969 20 10 20C10.2803 20 10.5477 19.8824 10.7372 19.6757L10 19ZM21.7372 7.67572C22.1103 7.26861 22.0828 6.63604 21.6757 6.26285C21.2686 5.88965 20.636 5.91716 20.2628 6.32428L21.7372 7.67572ZM2.26285 12.0394L9.26285 19.6757L10.7372 18.3243L3.73715 10.6879L2.26285 12.0394ZM10.7372 19.6757L21.7372 7.67572L20.2628 6.32428L9.26285 18.3243L10.7372 19.6757Z" fill="white"/>
</svg>
