<svg width="24" height="24" viewBox="0 0 24 24" fill="none" xmlns="http://www.w3.org/2000/svg">
<path d="M8.41037 10.4899L9.09037 10.9999L8.41037 10.4899ZM18.0945 13.9403L18.3006 13.1157L18.0945 13.9403ZM19.9726 14.785L20.4826 14.105L19.9726 14.785ZM18.3122 13.9947L18.5184 13.1701L18.3122 13.9947ZM20.5195 15.1952L21.0295 14.5152L20.5195 15.1952ZM8.80482 3.48051L8.12482 3.99051L8.80482 3.48051ZM9.40057 9.16961L8.72057 8.65961L9.40057 9.16961ZM5.27071 14.9249L5.9237 14.3807L5.27071 14.9249ZM9.67768 19.0598L9.15943 19.7335L9.67768 19.0598ZM11.6502 20.332L11.2502 21.082L11.6502 20.332ZM19.3456 21.7737L19.0768 20.9673L19.3456 21.7737ZM5.6444 15.3733L6.29739 14.8291L5.6444 15.3733ZM1.15 6.04903V6.91758H2.85V6.04903H1.15ZM17.136 22.85H17.951V21.15H17.136V22.85ZM8.16014 18.9648L9.15943 19.7335L10.1959 18.386L9.19665 17.6173L8.16014 18.9648ZM11.2502 21.082L12.297 21.6403L13.097 20.1403L12.0502 19.582L11.2502 21.082ZM2.2704 11.6637L2.72951 12.5819L4.25004 11.8216L3.79093 10.9034L2.2704 11.6637ZM4.61773 15.469L4.99141 15.9174L6.29739 14.8291L5.9237 14.3807L4.61773 15.469ZM19.6144 22.5801L19.7904 22.5214L19.2528 20.9086L19.0768 20.9673L19.6144 22.5801ZM1.47859 4.20962L1.41994 4.38557L3.0327 4.92316L3.09135 4.74721L1.47859 4.20962ZM5.72359 2.85H5.84381V1.15H5.72359V2.85ZM8.12482 3.99051L8.53498 4.53738L9.89498 3.51738L9.48482 2.97051L8.12482 3.99051ZM9.18066 5.89393L9.2351 6.1117L10.8843 5.69939L10.8299 5.48162L9.18066 5.89393ZM22.85 18.2764V18.1562H21.15V18.2764H22.85ZM21.0295 14.5152L20.4826 14.105L19.4626 15.465L20.0095 15.8752L21.0295 14.5152ZM18.5184 13.1701L18.3006 13.1157L17.8883 14.7649L18.1061 14.8193L18.5184 13.1701ZM8.72057 8.65961L7.73037 9.97988L9.09037 10.9999L10.0806 9.67961L8.72057 8.65961ZM14.3204 13.9194L13.0001 14.9096L14.0201 16.2696L15.3404 15.2794L14.3204 13.9194ZM13.0451 14.9056C11.3355 14.0508 9.94924 12.6645 9.09443 10.9549L7.5739 11.7151C8.59321 13.7538 10.2462 15.4068 12.2849 16.4261L13.0451 14.9056ZM13.0001 14.9096C13.0131 14.8999 13.0306 14.8983 13.0451 14.9056L12.2849 16.4261C12.8462 16.7068 13.518 16.6462 14.0201 16.2696L13.0001 14.9096ZM7.73037 9.97988C7.35379 10.482 7.29322 11.1538 7.5739 11.7151L9.09443 10.9549C9.10171 10.9694 9.10014 10.9869 9.09037 10.9999L7.73037 9.97988ZM15.661 13.217C15.1793 13.3776 14.7266 13.6148 14.3204 13.9194L15.3404 15.2794C15.6004 15.0844 15.8902 14.9326 16.1985 14.8298L15.661 13.217ZM18.3006 13.1157C17.429 12.8978 16.5133 12.9329 15.661 13.217L16.1985 14.8298C16.7442 14.6479 17.3303 14.6254 17.8883 14.7649L18.3006 13.1157ZM20.4826 14.105C19.8967 13.6656 19.2289 13.3477 18.5184 13.1701L18.1061 14.8193C18.5968 14.942 19.058 15.1615 19.4626 15.465L20.4826 14.105ZM22.6164 16.717C22.3237 15.8387 21.7701 15.0706 21.0295 14.5152L20.0095 15.8752C20.4735 16.2232 20.8203 16.7043 21.0037 17.2545L22.6164 16.717ZM22.85 18.1562C22.85 17.667 22.7711 17.181 22.6164 16.717L21.0037 17.2545C21.1006 17.5453 21.15 17.8497 21.15 18.1562H22.85ZM9.2351 6.1117C9.37459 6.66966 9.35208 7.25583 9.1702 7.80146L10.783 8.33904C11.0671 7.4867 11.1022 6.57101 10.8843 5.69939L9.2351 6.1117ZM6.74546 2.99632C7.29566 3.17972 7.77685 3.52654 8.12482 3.99051L9.48482 2.97051C8.92938 2.22991 8.16129 1.6763 7.28305 1.38356L6.74546 2.99632ZM9.1702 7.80146C9.06742 8.10981 8.91559 8.39958 8.72057 8.65961L10.0806 9.67961C10.3852 9.27341 10.6224 8.82074 10.783 8.33904L9.1702 7.80146ZM8.53498 4.53738C8.83845 4.94201 9.05798 5.40323 9.18066 5.89393L10.8299 5.48162C10.6523 4.77111 10.3344 4.10328 9.89498 3.51738L8.53498 4.53738ZM5.84381 2.85C6.15027 2.85 6.45473 2.89941 6.74546 2.99632L7.28305 1.38356C6.81897 1.22886 6.33299 1.15 5.84381 1.15V2.85ZM2.55956 2.46059C2.06835 2.95179 1.69826 3.55061 1.47859 4.20962L3.09135 4.74721C3.22757 4.33857 3.45705 3.96725 3.76164 3.66267L2.55956 2.46059ZM19.7904 22.5214C20.4494 22.3017 21.0482 21.9316 21.5394 21.4404L20.3373 20.2384C20.0328 20.5429 19.6614 20.7724 19.2528 20.9086L19.7904 22.5214ZM2.72951 12.5819C3.24549 13.6139 3.87911 14.5827 4.61773 15.469L5.9237 14.3807C5.26901 13.5951 4.70739 12.7363 4.25004 11.8216L2.72951 12.5819ZM9.15943 19.7335C9.81789 20.24 10.5172 20.691 11.2502 21.082L12.0502 19.582C11.4001 19.2353 10.7799 18.8352 10.1959 18.386L9.15943 19.7335ZM17.951 22.85C18.5164 22.85 19.0781 22.7589 19.6144 22.5801L19.0768 20.9673C18.7138 21.0883 18.3336 21.15 17.951 21.15V22.85ZM2.85 6.04903C2.85 5.66636 2.91169 5.28619 3.0327 4.92316L1.41994 4.38557C1.24115 4.92195 1.15 5.48364 1.15 6.04903H2.85ZM17.136 21.15C15.7272 21.15 14.3401 20.8032 13.097 20.1403L12.297 21.6403C13.7863 22.4345 15.4481 22.85 17.136 22.85V21.15ZM1.15 6.91758C1.15 8.56514 1.53359 10.1901 2.2704 11.6637L3.79093 10.9034C3.17215 9.66586 2.85 8.30122 2.85 6.91758H1.15ZM9.19665 17.6173C8.13066 16.7974 7.15836 15.8623 6.29739 14.8291L4.99141 15.9174C5.93241 17.0466 6.99508 18.0686 8.16014 18.9648L9.19665 17.6173ZM21.5394 21.4404C22.3786 20.6013 22.85 19.4632 22.85 18.2764H21.15C21.15 19.0123 20.8577 19.718 20.3373 20.2384L21.5394 21.4404ZM3.76164 3.66267C4.28198 3.14233 4.98771 2.85 5.72359 2.85V1.15C4.53685 1.15 3.39871 1.62143 2.55956 2.46059L3.76164 3.66267Z" fill="white"/>
</svg>
