<svg width="48" height="48" viewBox="0 0 48 48" fill="none" xmlns="http://www.w3.org/2000/svg">
<path d="M0 19.2C0 12.4794 0 9.11905 1.30792 6.55211C2.4584 4.29417 4.29417 2.4584 6.55211 1.30792C9.11905 0 12.4794 0 19.2 0H28.8C35.5206 0 38.8809 0 41.4479 1.30792C43.7058 2.4584 45.5416 4.29417 46.6921 6.55211C48 9.11905 48 12.4794 48 19.2V28.8C48 35.5206 48 38.8809 46.6921 41.4479C45.5416 43.7058 43.7058 45.5416 41.4479 46.6921C38.8809 48 35.5206 48 28.8 48H19.2C12.4794 48 9.11905 48 6.55211 46.6921C4.29417 45.5416 2.4584 43.7058 1.30792 41.4479C0 38.8809 0 35.5206 0 28.8V19.2Z" fill="#323232"/>
<path d="M15.7372 22.6879C15.364 22.2808 14.7314 22.2533 14.3243 22.6265C13.9172 22.9997 13.8897 23.6322 14.2628 24.0394L15.7372 22.6879ZM22 31L21.2628 31.6757C21.4523 31.8824 21.7197 32 22 32C22.2803 32 22.5477 31.8824 22.7372 31.6757L22 31ZM33.7372 19.6757C34.1103 19.2686 34.0828 18.636 33.6757 18.2628C33.2686 17.8897 32.636 17.9172 32.2628 18.3243L33.7372 19.6757ZM14.2628 24.0394L21.2628 31.6757L22.7372 30.3243L15.7372 22.6879L14.2628 24.0394ZM22.7372 31.6757L33.7372 19.6757L32.2628 18.3243L21.2628 30.3243L22.7372 31.6757Z" fill="white"/>
</svg>
