<svg width="48" height="48" viewBox="0 0 48 48" fill="none" xmlns="http://www.w3.org/2000/svg">
<path d="M0 24C0 10.7452 10.7452 0 24 0C37.2548 0 48 10.7452 48 24C48 37.2548 37.2548 48 24 48C10.7452 48 0 37.2548 0 24Z" fill="#323232"/>
<path d="M22 25.8L22.7882 25.4819C22.7019 25.2679 22.5321 25.0981 22.3181 25.0117L22 25.8ZM24.8166 32.7802L24.0283 33.0982L24.8166 32.7802ZM15.0778 21.1074L14.809 20.301L15.0778 21.1074ZM15.0198 22.9834L14.7018 23.7717L15.0198 22.9834ZM31.8675 17.1974L31.0612 16.9286L31.8675 17.1974ZM30.3338 15.1261L14.809 20.301L15.3466 21.9138L30.8714 16.7388L30.3338 15.1261ZM31.0612 16.9286L25.8862 32.4534L27.499 32.991L32.6739 17.4661L31.0612 16.9286ZM25.6048 32.4621L22.7882 25.4819L21.2118 26.1181L24.0283 33.0982L25.6048 32.4621ZM22.3181 25.0117L15.3379 22.1952L14.7018 23.7717L21.6819 26.5882L22.3181 25.0117ZM25.8862 32.4534C25.8707 32.4999 25.8506 32.5188 25.8356 32.5293C25.8161 32.5431 25.7859 32.5547 25.7485 32.5559C25.7111 32.5571 25.6804 32.5473 25.66 32.5348C25.6444 32.5252 25.6232 32.5076 25.6048 32.4621L24.0283 33.0982C24.6722 34.6938 26.9549 34.6233 27.499 32.991L25.8862 32.4534ZM14.809 20.301C13.1767 20.8451 13.1061 23.1278 14.7018 23.7717L15.3379 22.1952C15.2924 22.1768 15.2748 22.1556 15.2652 22.14C15.2527 22.1196 15.2429 22.0888 15.2441 22.0514C15.2452 22.014 15.2569 21.9839 15.2707 21.9644C15.2812 21.9494 15.3001 21.9293 15.3466 21.9138L14.809 20.301ZM30.8714 16.7388C30.9887 16.6997 31.1003 16.8113 31.0612 16.9286L32.6739 17.4661C33.156 16.0199 31.7801 14.644 30.3338 15.1261L30.8714 16.7388Z" fill="white"/>
</svg>
