<svg width="26" height="26" viewBox="0 0 26 26" fill="none" xmlns="http://www.w3.org/2000/svg">
<path fill-rule="evenodd" clip-rule="evenodd" d="M10.9562 2H11H15H15.0438C16.4068 1.99999 17.4908 1.99999 18.3654 2.07144C19.261 2.14462 20.0247 2.29768 20.7239 2.65396C21.8529 3.2292 22.7708 4.14708 23.346 5.27606C23.7023 5.9753 23.8554 6.73898 23.9286 7.63458C24 8.50914 24 9.59313 24 10.9561V10.9562V11V15V15.0438V15.0439C24 16.4069 24 17.4909 23.9286 18.3654C23.8554 19.261 23.7023 20.0247 23.346 20.7239C22.7708 21.8529 21.8529 22.7708 20.7239 23.346C20.0247 23.7023 19.261 23.8554 18.3654 23.9286C17.4909 24 16.4069 24 15.0439 24H15.0438H15H11H10.9562H10.9561C9.59313 24 8.50914 24 7.63458 23.9286C6.73898 23.8554 5.9753 23.7023 5.27606 23.346C4.14708 22.7708 3.2292 21.8529 2.65396 20.7239C2.29768 20.0247 2.14462 19.261 2.07144 18.3654C1.99999 17.4908 1.99999 16.4068 2 15.0438V15V11V10.9562C1.99999 9.5932 1.99999 8.50917 2.07144 7.63458C2.14462 6.73898 2.29768 5.9753 2.65396 5.27606C3.2292 4.14708 4.14708 3.2292 5.27606 2.65396C5.9753 2.29768 6.73898 2.14462 7.63458 2.07144C8.50917 1.99999 9.5932 1.99999 10.9562 2ZM7.79744 4.0648C7.02552 4.12787 6.55435 4.24729 6.18404 4.43597C5.43139 4.81947 4.81947 5.43139 4.43597 6.18404C4.24729 6.55435 4.12787 7.02552 4.0648 7.79744C4.00078 8.58104 4 9.58337 4 11V15C4 16.4166 4.00078 17.419 4.0648 18.2026C4.12787 18.9745 4.24729 19.4457 4.43597 19.816C4.81947 20.5686 5.43139 21.1805 6.18404 21.564C6.55435 21.7527 7.02552 21.8721 7.79744 21.9352C8.58104 21.9992 9.58337 22 11 22H15C16.4166 22 17.419 21.9992 18.2026 21.9352C18.9745 21.8721 19.4457 21.7527 19.816 21.564C20.5686 21.1805 21.1805 20.5686 21.564 19.816C21.7527 19.4457 21.8721 18.9745 21.9352 18.2026C21.9992 17.419 22 16.4166 22 15V11C22 9.58337 21.9992 8.58104 21.9352 7.79744C21.8721 7.02552 21.7527 6.55435 21.564 6.18404C21.1805 5.43139 20.5686 4.81947 19.816 4.43597C19.4457 4.24729 18.9745 4.12787 18.2026 4.0648C17.419 4.00078 16.4166 4 15 4H11C9.58337 4 8.58104 4.00078 7.79744 4.0648ZM7 13C7 12.4477 7.44772 12 8 12H18C18.5523 12 19 12.4477 19 13C19 13.5523 18.5523 14 18 14H8C7.44772 14 7 13.5523 7 13ZM7 17.5C7 16.9477 7.44772 16.5 8 16.5H13C13.5523 16.5 14 16.9477 14 17.5C14 18.0523 13.5523 18.5 13 18.5H8C7.44772 18.5 7 18.0523 7 17.5ZM8 7.5C7.44772 7.5 7 7.94772 7 8.5C7 9.05228 7.44772 9.5 8 9.5H18C18.5523 9.5 19 9.05228 19 8.5C19 7.94772 18.5523 7.5 18 7.5H8Z" fill="white"/>
</svg>
