<svg width="26" height="26" viewBox="0 0 26 26" fill="none" xmlns="http://www.w3.org/2000/svg">
<path d="M16.6667 23V24V23ZM23.4951 19.6472L23.0075 18.7741L23.4951 19.6472ZM22.5008 3.83404L22.0196 2.95747L22.5008 3.83404ZM3.49917 22.166L3.98045 23.0425L3.49917 22.166ZM2.99249 7.22592C3.75552 6.79979 5.261 5.96813 6.6664 5.24472C7.37065 4.88221 8.03741 4.55329 8.56795 4.31718C8.83438 4.1986 9.05203 4.10991 9.2152 4.05277C9.42066 3.98081 9.42791 4 9.33333 4V2C9.04884 2 8.74814 2.09723 8.55411 2.16519C8.31778 2.24795 8.0444 2.36105 7.75474 2.48997C7.17309 2.74883 6.46746 3.09771 5.75106 3.46647C4.31514 4.2056 2.78623 5.05036 2.01733 5.47976L2.99249 7.22592ZM8.33333 3V19.3636H10.3333V3H8.33333ZM9.33333 18.3636C9.08485 18.3636 8.83543 18.4364 8.67446 18.4883C8.48259 18.5502 8.26661 18.6341 8.04128 18.7292C7.58883 18.9201 7.04087 19.1806 6.46601 19.4674C5.3132 20.0426 3.99913 20.7507 3.01789 21.2894L3.98045 23.0425C4.95454 22.5077 6.24153 21.8146 7.35896 21.257C7.91922 20.9775 8.42367 20.7386 8.81886 20.5719C9.01735 20.4881 9.17399 20.4286 9.2883 20.3918C9.4335 20.3449 9.42381 20.3636 9.33333 20.3636V18.3636ZM3 21.2839V7.21907H1V21.2839H3ZM9.33333 4C9.2493 4 9.21741 3.98346 9.27539 4.00046C9.31967 4.01344 9.39024 4.03823 9.49115 4.08005C9.69276 4.16361 9.95757 4.29083 10.2774 4.45633C10.9157 4.78662 11.6995 5.23059 12.507 5.68819C13.3037 6.13968 14.1241 6.6048 14.8035 6.95633C15.1425 7.13174 15.4649 7.28861 15.7431 7.40391C15.8821 7.46152 16.0246 7.51486 16.162 7.55515C16.2858 7.59142 16.468 7.63636 16.6667 7.63636V5.63636C16.7507 5.63636 16.7826 5.6529 16.7246 5.6359C16.6803 5.62292 16.6098 5.59814 16.5089 5.55631C16.3072 5.47275 16.0424 5.34553 15.7226 5.18003C15.0843 4.84975 14.3005 4.40577 13.493 3.94817C12.6963 3.49668 11.8759 3.03157 11.1965 2.68003C10.8575 2.50462 10.5351 2.34775 10.2569 2.23245C10.1179 2.17484 9.97541 2.1215 9.83797 2.08121C9.71424 2.04495 9.53195 2 9.33333 2V4ZM15.6667 6.63636V23H17.6667V6.63636H15.6667ZM16.6667 22C16.7507 22 16.7826 22.0165 16.7246 21.9995C16.6803 21.9866 16.6098 21.9618 16.5089 21.92C16.3072 21.8364 16.0424 21.7092 15.7226 21.5437C15.0843 21.2134 14.3005 20.7694 13.493 20.3118C12.6963 19.8603 11.8759 19.3952 11.1965 19.0437C10.8575 18.8683 10.5351 18.7114 10.2569 18.5961C10.1179 18.5385 9.97541 18.4851 9.83797 18.4449C9.71424 18.4086 9.53195 18.3636 9.33333 18.3636V20.3636C9.2493 20.3636 9.21741 20.3471 9.27539 20.3641C9.31967 20.3771 9.39024 20.4019 9.49115 20.4437C9.69276 20.5272 9.95757 20.6545 10.2774 20.82C10.9157 21.1503 11.6995 21.5942 12.507 22.0518C13.3037 22.5033 14.1241 22.9684 14.8035 23.32C15.1425 23.4954 15.4649 23.6522 15.7431 23.7676C15.8821 23.8252 16.0246 23.8785 16.162 23.9188C16.2858 23.9551 16.468 24 16.6667 24V22ZM16.6667 7.63636C16.9151 7.63636 17.1646 7.56363 17.3255 7.51172C17.5174 7.44985 17.7334 7.36588 17.9587 7.2708C18.4112 7.07987 18.9591 6.81942 19.534 6.53258C20.6868 5.95737 22.0009 5.24935 22.9821 4.71061L22.0196 2.95747C21.0455 3.49229 19.7585 4.18543 18.641 4.74299C18.0808 5.02254 17.5763 5.26138 17.1811 5.42814C16.9826 5.5119 16.826 5.57139 16.7117 5.60825C16.5665 5.65507 16.5762 5.63636 16.6667 5.63636V7.63636ZM23 4.71612V18.7809H25V4.71612H23ZM23.0075 18.7741C22.2445 19.2002 20.739 20.0319 19.3336 20.7553C18.6294 21.1178 17.9626 21.4467 17.4321 21.6828C17.1656 21.8014 16.948 21.8901 16.7848 21.9472C16.5793 22.0192 16.5721 22 16.6667 22V24C16.9512 24 17.2519 23.9028 17.4459 23.8348C17.6822 23.752 17.9556 23.6389 18.2453 23.51C18.8269 23.2512 19.5325 22.9023 20.2489 22.5335C21.6849 21.7944 23.2138 20.9496 23.9827 20.5202L23.0075 18.7741ZM23 18.7809C23 18.7839 22.9994 18.7833 23.0008 18.7808C23.0015 18.7797 23.0025 18.7783 23.0039 18.7769C23.0055 18.7754 23.0068 18.7745 23.0075 18.7741L23.9827 20.5202C24.6193 20.1647 25 19.4967 25 18.7809H23ZM22.9821 4.71061C22.9871 4.70787 22.989 4.70761 22.9881 4.70781C22.9875 4.70796 22.9867 4.70803 22.9862 4.70802C22.9859 4.70801 22.9899 4.70825 22.9958 4.7117C23.0016 4.71513 23.0029 4.71791 23.0017 4.71605C23.001 4.71486 23.0003 4.71322 22.9999 4.71166C22.9994 4.70991 23 4.71094 23 4.71612H25C25 3.18114 23.3502 2.22687 22.0196 2.95747L22.9821 4.71061ZM3.01789 21.2894C3.0129 21.2921 3.01101 21.2924 3.01185 21.2922C3.0125 21.292 3.01333 21.292 3.01379 21.292C3.01406 21.292 3.01006 21.2917 3.0042 21.2883C2.99836 21.2849 2.99715 21.2821 2.99826 21.284C2.99897 21.2851 2.9997 21.2868 3.00013 21.2883C3.00062 21.2901 3 21.2891 3 21.2839H1C1 22.8189 2.64978 23.7731 3.98045 23.0425L3.01789 21.2894ZM2.01733 5.47976C1.38067 5.83531 1 6.50332 1 7.21907H3C3 7.21606 3.00063 7.21666 2.99917 7.21917C2.9985 7.22032 2.99748 7.22171 2.99606 7.22312C2.99455 7.22461 2.99317 7.22554 2.99249 7.22592L2.01733 5.47976Z" fill="white"/>
</svg>
