<svg width="26" height="26" viewBox="0 0 26 26" fill="none" xmlns="http://www.w3.org/2000/svg">
<path fill-rule="evenodd" clip-rule="evenodd" d="M13.0003 3.5C7.75344 3.5 3.5 7.75344 3.5 13.0003C3.5 15.4707 4.44288 17.7208 5.98839 19.4105C7.98569 18.0477 10.401 17.2505 13.0003 17.2505C15.5996 17.2505 18.0149 18.0477 20.0122 19.4105C21.5577 17.7208 22.5006 15.4707 22.5006 13.0003C22.5006 7.75344 18.2472 3.5 13.0003 3.5ZM13.0003 22.5006C10.972 22.5006 9.09221 21.865 7.54916 20.7821C9.1362 19.8103 11.002 19.2505 13.0003 19.2505C14.9986 19.2505 16.8644 19.8103 18.4514 20.7821C16.9084 21.865 15.0286 22.5006 13.0003 22.5006ZM1.5 13.0003C1.5 6.64887 6.64887 1.5 13.0003 1.5C19.3518 1.5 24.5006 6.64887 24.5006 13.0003C24.5006 19.3518 19.3518 24.5006 13.0003 24.5006C6.64887 24.5006 1.5 19.3518 1.5 13.0003ZM10.5 11C10.5 9.61929 11.6193 8.5 13 8.5C14.3807 8.5 15.5 9.61929 15.5 11C15.5 12.3807 14.3807 13.5 13 13.5C11.6193 13.5 10.5 12.3807 10.5 11ZM13 6.5C10.5147 6.5 8.5 8.51472 8.5 11C8.5 13.4853 10.5147 15.5 13 15.5C15.4853 15.5 17.5 13.4853 17.5 11C17.5 8.51472 15.4853 6.5 13 6.5Z" fill="white"/>
</svg>
