<svg width="48" height="48" viewBox="0 0 48 48" fill="none" xmlns="http://www.w3.org/2000/svg">
<path d="M0 19.2C0 12.4794 0 9.11905 1.30792 6.55211C2.4584 4.29417 4.29417 2.4584 6.55211 1.30792C9.11905 0 12.4794 0 19.2 0H28.8C35.5206 0 38.8809 0 41.4479 1.30792C43.7058 2.4584 45.5416 4.29417 46.6921 6.55211C48 9.11905 48 12.4794 48 19.2V28.8C48 35.5206 48 38.8809 46.6921 41.4479C45.5416 43.7058 43.7058 45.5416 41.4479 46.6921C38.8809 48 35.5206 48 28.8 48H19.2C12.4794 48 9.11905 48 6.55211 46.6921C4.29417 45.5416 2.4584 43.7058 1.30792 41.4479C0 38.8809 0 35.5206 0 28.8V19.2Z" fill="#323232"/>
<path fill-rule="evenodd" clip-rule="evenodd" d="M23.9197 14.7248C23.9698 14.6917 24.0348 14.6917 24.085 14.7248L33.2373 20.7678C33.3271 20.8271 33.3271 20.9589 33.2373 21.0181L24.085 27.0611C24.0348 27.0942 23.9698 27.0942 23.9197 27.0611L14.7673 21.0181C14.6776 20.9589 14.6775 20.8271 14.7674 20.7678L23.9197 14.7248ZM25.0217 13.3062C24.4034 12.8979 23.6012 12.8979 22.983 13.3062L13.8307 19.3491C12.7231 20.0804 12.7231 21.7055 13.8307 22.4368L22.983 28.4798C23.6012 28.888 24.4034 28.888 25.0217 28.4798L34.174 22.4368C35.2815 21.7055 35.2815 20.0804 34.174 19.3491L25.0217 13.3062ZM14.4971 27.1124C14.1042 26.8555 13.5774 26.9659 13.3206 27.3589C13.0638 27.7518 13.1741 28.2786 13.5671 28.5354L22.9902 34.694C23.6051 35.0959 24.3995 35.0959 25.0144 34.694L34.4375 28.5354C34.8305 28.2786 34.9408 27.7518 34.684 27.3589C34.4272 26.9659 33.9004 26.8555 33.5075 27.1124L24.0844 33.271C24.0345 33.3036 23.9701 33.3036 23.9202 33.271L14.4971 27.1124Z" fill="white"/>
</svg>
