<svg width="48" height="48" viewBox="0 0 48 48" fill="none" xmlns="http://www.w3.org/2000/svg">
<path d="M0 19.2C0 12.4794 0 9.11905 1.30792 6.55211C2.4584 4.29417 4.29417 2.4584 6.55211 1.30792C9.11905 0 12.4794 0 19.2 0H28.8C35.5206 0 38.8809 0 41.4479 1.30792C43.7058 2.4584 45.5416 4.29417 46.6921 6.55211C48 9.11905 48 12.4794 48 19.2V28.8C48 35.5206 48 38.8809 46.6921 41.4479C45.5416 43.7058 43.7058 45.5416 41.4479 46.6921C38.8809 48 35.5206 48 28.8 48H19.2C12.4794 48 9.11905 48 6.55211 46.6921C4.29417 45.5416 2.4584 43.7058 1.30792 41.4479C0 38.8809 0 35.5206 0 28.8V19.2Z" fill="#323232"/>
<path fill-rule="evenodd" clip-rule="evenodd" d="M24.85 16C24.85 15.5306 24.4694 15.15 24 15.15C23.5306 15.15 23.15 15.5306 23.15 16V23.15H16C15.5306 23.15 15.15 23.5306 15.15 24C15.15 24.4694 15.5306 24.85 16 24.85H23.15V32C23.15 32.4694 23.5306 32.85 24 32.85C24.4694 32.85 24.85 32.4694 24.85 32V24.85H32C32.4694 24.85 32.85 24.4694 32.85 24C32.85 23.5306 32.4694 23.15 32 23.15H24.85V16Z" fill="white"/>
</svg>
