<svg width="24" height="24" viewBox="0 0 24 24" fill="none" xmlns="http://www.w3.org/2000/svg">
<path d="M7.60104 8.39896C7.2691 8.06701 6.7309 8.06701 6.39896 8.39896C6.06701 8.73091 6.06701 9.2691 6.39896 9.60104L7.60104 8.39896ZM12 14L11.399 14.601C11.7309 14.933 12.2691 14.933 12.601 14.601L12 14ZM17.601 9.60104C17.933 9.2691 17.933 8.73091 17.601 8.39896C17.2691 8.06701 16.7309 8.06701 16.399 8.39896L17.601 9.60104ZM6.39896 9.60104L11.399 14.601L12.601 13.399L7.60104 8.39896L6.39896 9.60104ZM12.601 14.601L17.601 9.60104L16.399 8.39896L11.399 13.399L12.601 14.601Z" fill="white"/>
</svg>
