<svg width="26" height="26" viewBox="0 0 26 26" fill="none" xmlns="http://www.w3.org/2000/svg">
<path fill-rule="evenodd" clip-rule="evenodd" d="M6 2C3.79086 2 2 3.79086 2 6V11.1872C2 12.5133 2.52678 13.7851 3.46447 14.7227L11.2773 22.5356C13.23 24.4882 16.3958 24.4882 18.3484 22.5356L22.5356 18.3484C24.4882 16.3958 24.4882 13.23 22.5356 11.2773L14.7227 3.46447C13.7851 2.52678 12.5133 2 11.1872 2H6ZM4 6C4 4.89543 4.89543 4 6 4H11.1872C11.9829 4 12.7459 4.31607 13.3085 4.87868L21.1214 12.6916C22.293 13.8631 22.293 15.7626 21.1214 16.9342L16.9342 21.1214C15.7626 22.293 13.8631 22.293 12.6916 21.1214L4.87868 13.3085C4.31607 12.7459 4 11.9829 4 11.1872V6ZM8.92203 8.90668L8.92173 8.90872C8.92144 8.91015 8.92098 8.91162 8.92041 8.91297C8.91933 8.91553 8.9182 8.91688 8.91753 8.91754C8.91687 8.9182 8.91552 8.91934 8.91296 8.92042C8.91161 8.92099 8.91015 8.92145 8.90871 8.92174C8.90791 8.92191 8.90731 8.92198 8.90696 8.92201C8.90681 8.92203 8.9067 8.92203 8.90666 8.92204L8.90464 8.92174C8.90389 8.92159 8.90313 8.92139 8.90239 8.92115C8.9017 8.92094 8.90103 8.92069 8.90039 8.92042C8.89783 8.91934 8.89648 8.9182 8.89581 8.91754C8.89515 8.91688 8.89402 8.91553 8.89293 8.91297C8.89236 8.91162 8.89191 8.91015 8.89161 8.90872L8.89132 8.9067C8.89133 8.90654 8.89137 8.9058 8.89161 8.90464C8.89191 8.90321 8.89236 8.90174 8.89293 8.9004C8.89402 8.89783 8.89515 8.89648 8.89581 8.89582C8.89648 8.89516 8.89783 8.89402 8.90039 8.89294C8.90173 8.89237 8.9032 8.89191 8.90464 8.89162C8.9058 8.89138 8.90653 8.89133 8.90669 8.89132L8.90871 8.89162C8.90916 8.89171 8.90962 8.89182 8.91007 8.89194C8.91106 8.89221 8.91204 8.89255 8.91296 8.89294C8.91552 8.89402 8.91687 8.89516 8.91753 8.89582C8.9182 8.89648 8.91933 8.89783 8.92041 8.9004C8.92098 8.90174 8.92144 8.90321 8.92173 8.90464L8.92203 8.90668ZM8.90667 6.92204C7.81059 6.92204 6.92203 7.81059 6.92203 8.90668C6.92203 10.0028 7.81059 10.8913 8.90667 10.8913C10.0028 10.8913 10.8913 10.0028 10.8913 8.90668C10.8913 7.81059 10.0028 6.92204 8.90667 6.92204Z" fill="white"/>
</svg>
