<svg width="24" height="24" viewBox="0 0 24 24" fill="none" xmlns="http://www.w3.org/2000/svg">
<path d="M3 11.15C2.53056 11.15 2.15 11.5306 2.15 12C2.15 12.4694 2.53056 12.85 3 12.85V11.15ZM21 12L21.6119 12.59C21.9294 12.2607 21.9294 11.7393 21.6119 11.41L21 12ZM13.8976 3.40998C13.5717 3.07206 13.0336 3.06228 12.6957 3.38813C12.3578 3.71399 12.348 4.25209 12.6738 4.59002L13.8976 3.40998ZM12.6738 19.41C12.348 19.7479 12.3578 20.286 12.6957 20.6119C13.0336 20.9377 13.5717 20.9279 13.8976 20.59L12.6738 19.41ZM3 12.85H21V11.15H3V12.85ZM21.6119 11.41L13.8976 3.40998L12.6738 4.59002L20.3881 12.59L21.6119 11.41ZM20.3881 11.41L12.6738 19.41L13.8976 20.59L21.6119 12.59L20.3881 11.41Z" fill="white"/>
</svg>
