<svg width="18" height="18" viewBox="0 0 18 18" fill="none" xmlns="http://www.w3.org/2000/svg">
<path fill-rule="evenodd" clip-rule="evenodd" d="M9 16C12.866 16 16 12.866 16 9C16 5.13401 12.866 2 9 2C5.13401 2 2 5.13401 2 9C2 12.866 5.13401 16 9 16ZM12.9571 7.70711C13.3476 7.31658 13.3476 6.68342 12.9571 6.29289C12.5666 5.90237 11.9334 5.90237 11.5429 6.29289L7.75 10.0858L6.45711 8.79289C6.06658 8.40237 5.43342 8.40237 5.04289 8.79289C4.65237 9.18342 4.65237 9.81658 5.04289 10.2071L7.04289 12.2071C7.43342 12.5976 8.06658 12.5976 8.45711 12.2071L12.9571 7.70711Z" fill="#23B849"/>
</svg>
