<svg width="18" height="18" viewBox="0 0 18 18" fill="none" xmlns="http://www.w3.org/2000/svg">
<path fill-rule="evenodd" clip-rule="evenodd" d="M11.478 3.63946L10.7465 6.60979L12.4775 6.92526C13.3363 7.07022 14.111 7.47965 14.3394 8.29802C14.5701 9.12502 14.1149 9.94983 13.6011 10.567L9.02852 15.7374C8.73296 16.0558 8.43267 16.3143 8.13598 16.4725C7.86264 16.6181 7.41887 16.7645 6.99438 16.5189C6.57955 16.279 6.474 15.83 6.45196 15.5215C6.42777 15.1831 6.48291 14.7842 6.5923 14.3504C6.59237 14.3501 6.59223 14.3507 6.5923 14.3504L7.34459 11.3401L5.71426 11.0524C4.88683 10.9106 4.05873 10.5217 3.7314 9.74368C3.38534 8.92112 3.74355 8.03822 4.45486 7.26143C4.87189 6.80603 5.31063 6.37039 5.72814 5.91516C6.48189 5.0933 7.58495 3.87659 9.03813 2.26411C9.31775 1.94916 9.60937 1.69122 9.90397 1.53159C10.1792 1.38243 10.6123 1.24167 11.0334 1.46817C11.4535 1.69408 11.5782 2.13329 11.6082 2.45309C11.6404 2.79589 11.5886 3.19963 11.478 3.63946ZM10.2417 2.95751C10.1811 3.01568 10.1158 3.08358 10.0463 3.16199C8.95213 4.39557 7.83757 5.61243 6.72307 6.82763C6.45486 7.12007 6.02799 7.57136 5.44541 8.1787C4.88 8.79844 4.93434 9.1217 4.97576 9.22017C5.11672 9.55521 5.63617 9.66941 5.9456 9.72241L8.04443 10.0927C8.55045 10.182 8.89905 10.688 8.76975 11.2054L7.90148 14.6799C7.86832 14.8113 7.84396 14.9286 7.82708 15.0321C7.89087 14.9729 7.95984 14.9041 8.0337 14.8248L12.5762 9.68809C13.0533 9.11229 13.0714 8.77686 13.039 8.66083C13.0199 8.59217 12.9063 8.36593 12.2495 8.25588L10.0438 7.85396C9.53629 7.76146 9.19941 7.2463 9.32285 6.7451L10.1688 3.3103C10.2021 3.17777 10.2259 3.06034 10.2417 2.95751Z" fill="white"/>
</svg>
