<svg width="18" height="18" viewBox="0 0 18 18" fill="none" xmlns="http://www.w3.org/2000/svg">
<path d="M9.51924 2.00064C10.3847 2.02808 10.9475 2.51309 11.2443 3.4274L11.2913 3.58375L11.3276 3.72374C11.3409 3.77765 11.3573 3.83505 11.3766 3.89466L11.4177 4.01097L11.4421 4.02338L11.4915 4.00674L11.5873 3.96938L11.699 3.91988C12.712 3.4395 13.4913 3.52866 14.1259 4.23895L14.2156 4.34465L14.8033 5.08654C15.3271 5.78889 15.3112 6.53961 14.8003 7.3499L14.7106 7.4855L14.6267 7.60237C14.5932 7.64773 14.559 7.69801 14.525 7.75204L14.4742 7.83576L14.4502 7.87765L14.453 7.89225L14.5187 7.93639L14.6094 7.99216L14.7193 8.05298C15.7146 8.57036 16.1254 9.25074 15.9669 10.1959L15.9404 10.3327L15.7655 11.1051C15.6522 11.6049 15.5633 11.8415 15.2132 12.1662C14.8732 12.4816 14.4852 12.6118 13.9725 12.655L13.8148 12.6654L13.6727 12.67C13.6176 12.671 13.5584 12.6745 13.4963 12.6804L13.3667 12.696L13.3762 12.8L13.3857 12.8699L13.4088 13.0003C13.6405 14.1138 13.3799 14.8672 12.5577 15.3372L12.4364 15.4024L11.5945 15.8188C10.8047 16.1806 10.0902 15.996 9.42995 15.3067L9.32041 15.1871L9.22748 15.0775C9.19126 15.0336 9.15038 14.988 9.10584 14.9416L9.03639 14.8717L9.00081 14.8381L8.93513 14.9018L8.85989 14.9806L8.77558 15.0775C8.09308 15.9049 7.37275 16.2019 6.49966 15.8561L6.37388 15.8023L5.6205 15.4293L5.3967 15.3127C5.05558 15.1229 4.86415 14.9412 4.67709 14.5389C4.48015 14.1153 4.46692 13.6992 4.56239 13.1645L4.59422 13.0003C4.60562 12.9455 4.61558 12.8861 4.62392 12.8234L4.63704 12.6982L4.63418 12.6953L4.55989 12.6852L4.45492 12.6756L4.33032 12.67C3.21301 12.6494 2.55095 12.2213 2.28628 11.2996L2.25117 11.1645L2.04223 10.2353C1.87379 9.3702 2.21116 8.70255 3.01907 8.20237L3.15807 8.12056L3.2838 8.05298C3.33308 8.02737 3.38501 7.99766 3.43843 7.96456L3.54932 7.89079L3.55219 7.87692L3.50737 7.79818L3.44947 7.70683L3.37639 7.60237C2.70443 6.69292 2.62802 5.89797 3.17821 5.11805L3.26107 5.00673L3.85134 4.26695C4.41694 3.59913 5.14119 3.45887 6.02554 3.79937L6.17442 3.86057L6.30411 3.91988C6.3529 3.94302 6.40629 3.96581 6.4631 3.98777L6.56025 4.02265L6.58605 4.01024L6.61015 3.94555L6.64245 3.84487L6.67543 3.72374C6.93276 2.67534 7.45236 2.08676 8.38752 2.00781L8.52395 2L9.51924 2.00064ZM9.47911 3.31371H8.52395L8.42406 3.32116C8.21909 3.34835 8.08519 3.46104 7.95638 3.92815L7.92671 4.04236L7.88625 4.19253C7.81104 4.44981 7.69735 4.73932 7.55094 5.02041C7.26108 5.12621 6.98562 5.26282 6.72881 5.42774C6.42663 5.36535 6.13849 5.27383 5.89804 5.1726L5.64724 5.05953C5.46889 4.98171 5.3353 4.94202 5.22944 4.93236L5.16911 4.9301C5.04184 4.93281 4.95781 4.98605 4.87664 5.07067L4.82795 5.12506L4.2625 5.83463L4.19463 5.92613C4.06322 6.11904 4.04356 6.29106 4.33426 6.711L4.49778 6.94149C4.64961 7.16755 4.80187 7.44617 4.92618 7.74535C4.83344 8.02581 4.76783 8.31898 4.73267 8.62219C4.49344 8.83312 4.23851 9.01386 4.00634 9.14821L3.76109 9.28184C3.31907 9.52947 3.26271 9.69286 3.2978 9.92493L3.30738 9.97977L3.50822 10.8705L3.53723 10.9813C3.60557 11.2055 3.72656 11.3272 4.23042 11.3524L4.50797 11.363C4.77377 11.38 5.07974 11.4286 5.38437 11.5118C5.54543 11.7665 5.73171 12.0031 5.94052 12.2178C5.95241 12.6022 5.91752 12.9768 5.85599 13.2727C5.71189 13.9653 5.84603 14.0769 6.13078 14.221L6.93767 14.6207C7.02317 14.6599 7.09958 14.6863 7.17898 14.6853L7.22708 14.6812C7.35682 14.661 7.50042 14.5631 7.70739 14.3274L7.89211 14.1122C8.07606 13.9087 8.31101 13.693 8.57176 13.5013L8.78526 13.5175L9.00153 13.5229L9.21781 13.5174L9.43144 13.5007C9.69207 13.6929 9.92701 13.9087 10.1109 14.1122L10.2957 14.3274C10.5285 14.5926 10.6811 14.6833 10.8241 14.6853L10.8715 14.6827C10.9134 14.6777 10.9552 14.6657 10.9987 14.649L11.0654 14.6207L11.8723 14.221L11.9718 14.1673C12.1862 14.0399 12.2732 13.8787 12.1471 13.2727C12.0855 12.9768 12.0506 12.6022 12.0634 12.2179C12.2713 12.0031 12.4576 11.7665 12.6189 11.5106C12.9237 11.4283 13.2296 11.38 13.4952 11.363L13.7726 11.3524C14.354 11.3233 14.4257 11.1658 14.4948 10.8705L14.6837 10.0375C14.7486 9.74114 14.752 9.56757 14.242 9.28184L13.9967 9.1482C13.7645 9.01382 13.5096 8.83299 13.2705 8.62161C13.2352 8.31898 13.1696 8.02581 13.0765 7.74475C13.2011 7.44607 13.3534 7.16753 13.5053 6.94149L13.6688 6.711C13.9595 6.29106 13.9398 6.11904 13.8084 5.92613L13.7762 5.88112L13.2123 5.17023C13.1114 5.04515 13.0267 4.95559 12.8884 4.93467L12.8339 4.9301C12.7194 4.92766 12.5698 4.96615 12.3558 5.05953L12.1051 5.17256C11.8648 5.2737 11.5769 5.36503 11.2751 5.4266C11.0173 5.26268 10.7412 5.12581 10.4507 5.02107C10.3113 4.7507 10.2011 4.47298 10.126 4.22356L10.0447 3.92099C9.90724 3.42661 9.76362 3.33391 9.53373 3.31653L9.47911 3.31371ZM9.00153 6.37054C10.5053 6.37054 11.7244 7.61223 11.7244 9.14392C11.7244 10.6756 10.5053 11.9173 9.00153 11.9173C7.49773 11.9173 6.27865 10.6756 6.27865 9.14392C6.27865 7.61223 7.49773 6.37054 9.00153 6.37054ZM9.00153 7.68425C8.21005 7.68425 7.56844 8.33777 7.56844 9.14392C7.56844 9.95008 8.21005 10.6036 9.00153 10.6036C9.79301 10.6036 10.4346 9.95008 10.4346 9.14392C10.4346 8.33777 9.79301 7.68425 9.00153 7.68425Z" fill="white"/>
</svg>
