<svg width="24" height="24" viewBox="0 0 24 24" fill="none" xmlns="http://www.w3.org/2000/svg">
<path d="M10 13.8L10.7882 13.4819C10.7019 13.2679 10.5321 13.0981 10.3181 13.0118L10 13.8ZM12.8166 20.7802L12.0283 21.0982L12.8166 20.7802ZM3.07779 9.10741L2.809 8.30103L3.07779 9.10741ZM3.01982 10.9834L2.70176 11.7717L3.01982 10.9834ZM19.8675 5.19737L19.0612 4.92858L19.8675 5.19737ZM18.3338 3.12608L2.809 8.30103L3.34658 9.91379L18.8714 4.73884L18.3338 3.12608ZM19.0612 4.92858L13.8862 20.4534L15.499 20.991L20.6739 5.46616L19.0612 4.92858ZM13.6048 20.4621L10.7882 13.4819L9.21175 14.1181L12.0283 21.0982L13.6048 20.4621ZM10.3181 13.0118L3.33789 10.1952L2.70176 11.7717L9.68194 14.5883L10.3181 13.0118ZM13.8862 20.4534C13.8707 20.5 13.8506 20.5188 13.8356 20.5293C13.8161 20.5431 13.7859 20.5548 13.7485 20.5559C13.7111 20.5571 13.6804 20.5473 13.66 20.5348C13.6444 20.5252 13.6232 20.5076 13.6048 20.4621L12.0283 21.0982C12.6722 22.6939 14.9549 22.6233 15.499 20.991L13.8862 20.4534ZM2.809 8.30103C1.17667 8.84514 1.10615 11.1278 2.70176 11.7717L3.33789 10.1952C3.2924 10.1768 3.27482 10.1556 3.26524 10.14C3.25273 10.1196 3.24293 10.0889 3.24409 10.0515C3.24524 10.0141 3.25693 9.98394 3.27066 9.96439C3.28118 9.94942 3.30005 9.9293 3.34658 9.91379L2.809 8.30103ZM18.8714 4.73884C18.9887 4.69975 19.1003 4.81131 19.0612 4.92858L20.6739 5.46616C21.156 4.01991 19.7801 2.64399 18.3338 3.12608L18.8714 4.73884Z" fill="white"/>
</svg>
