<svg width="24" height="24" viewBox="0 0 24 24" fill="none" xmlns="http://www.w3.org/2000/svg">
<path fill-rule="evenodd" clip-rule="evenodd" d="M11.9197 2.72482C11.9698 2.69173 12.0348 2.69173 12.085 2.72482L21.2373 8.7678C21.3271 8.82709 21.3271 8.95885 21.2373 9.01815L12.085 15.0611C12.0348 15.0942 11.9698 15.0942 11.9197 15.0611L2.76735 9.01815C2.67755 8.95886 2.67755 8.82709 2.76735 8.76779L11.9197 2.72482ZM13.0217 1.30616C12.4034 0.897946 11.6012 0.897946 10.983 1.30616L1.83065 7.34913C0.723117 8.0804 0.723113 9.70554 1.83065 10.4368L10.983 16.4798C11.6012 16.888 12.4034 16.888 13.0217 16.4798L22.174 10.4368C23.2815 9.70554 23.2815 8.08041 22.174 7.34913L13.0217 1.30616ZM2.49715 15.1124C2.10419 14.8555 1.57744 14.9659 1.32061 15.3589C1.06379 15.7518 1.17415 16.2786 1.5671 16.5354L10.9902 22.694C11.6051 23.0959 12.3995 23.0959 13.0144 22.694L22.4375 16.5354C22.8305 16.2786 22.9408 15.7518 22.684 15.3589C22.4272 14.9659 21.9004 14.8555 21.5075 15.1124L12.0844 21.271C12.0345 21.3036 11.9701 21.3036 11.9202 21.271L2.49715 15.1124Z" fill="white"/>
</svg>
