<svg width="24" height="24" viewBox="0 0 24 24" fill="none" xmlns="http://www.w3.org/2000/svg">
<path fill-rule="evenodd" clip-rule="evenodd" d="M12.85 3.99999C12.85 3.53055 12.4694 3.14999 12 3.14999C11.5306 3.14999 11.15 3.53055 11.15 3.99999V11.15H3.99999C3.53055 11.15 3.14999 11.5306 3.14999 12C3.14999 12.4694 3.53055 12.85 3.99999 12.85H11.15V20C11.15 20.4694 11.5306 20.85 12 20.85C12.4694 20.85 12.85 20.4694 12.85 20V12.85H20C20.4694 12.85 20.85 12.4694 20.85 12C20.85 11.5306 20.4694 11.15 20 11.15H12.85V3.99999Z" fill="white"/>
</svg>
