<svg width="18" height="18" viewBox="0 0 18 18" fill="none" xmlns="http://www.w3.org/2000/svg">
<path fill-rule="evenodd" clip-rule="evenodd" d="M9 16C12.866 16 16 12.866 16 9C16 5.13401 12.866 2 9 2C5.13401 2 2 5.13401 2 9C2 12.866 5.13401 16 9 16ZM9 4.5C9.55228 4.5 10 4.94772 10 5.5V9.25C10 9.80228 9.55229 10.25 9 10.25C8.44772 10.25 8 9.80228 8 9.25V5.5C8 4.94772 8.44772 4.5 9 4.5ZM10.08 12.42C10.08 13.0165 9.59645 13.5 8.99998 13.5C8.40352 13.5 7.91998 13.0165 7.91998 12.42C7.91998 11.8235 8.40352 11.34 8.99998 11.34C9.59645 11.34 10.08 11.8235 10.08 12.42Z" fill="#FFAC2B"/>
</svg>
