<svg width="24" height="24" viewBox="0 0 24 24" fill="none" xmlns="http://www.w3.org/2000/svg">
<path d="M7.60104 9.39896C7.2691 9.06701 6.7309 9.06701 6.39896 9.39896C6.06701 9.73091 6.06701 10.2691 6.39896 10.601L7.60104 9.39896ZM12 15L11.399 15.601C11.7309 15.933 12.2691 15.933 12.601 15.601L12 15ZM17.601 10.601C17.933 10.2691 17.933 9.73091 17.601 9.39896C17.2691 9.06701 16.7309 9.06701 16.399 9.39896L17.601 10.601ZM6.39896 10.601L11.399 15.601L12.601 14.399L7.60104 9.39896L6.39896 10.601ZM12.601 15.601L17.601 10.601L16.399 9.39896L11.399 14.399L12.601 15.601Z" fill="white"/>
</svg>
