<svg width="24" height="24" viewBox="0 0 24 24" fill="none" xmlns="http://www.w3.org/2000/svg">
<path d="M16.399 13.601C16.7309 13.933 17.2691 13.933 17.601 13.601C17.933 13.2691 17.933 12.7309 17.601 12.399L16.399 13.601ZM12 8L12.601 7.39896C12.4416 7.23955 12.2254 7.15 12 7.15C11.7746 7.15 11.5584 7.23955 11.399 7.39896L12 8ZM6.39896 12.399C6.06701 12.7309 6.06701 13.2691 6.39896 13.601C6.73091 13.933 7.2691 13.933 7.60104 13.601L6.39896 12.399ZM17.601 12.399L12.601 7.39896L11.399 8.60104L16.399 13.601L17.601 12.399ZM11.399 7.39896L6.39896 12.399L7.60104 13.601L12.601 8.60104L11.399 7.39896Z" fill="white"/>
</svg>
