<svg width="24" height="24" viewBox="0 0 24 24" fill="none" xmlns="http://www.w3.org/2000/svg">
<path d="M16.399 15.601C16.7309 15.933 17.2691 15.933 17.601 15.601C17.933 15.2691 17.933 14.7309 17.601 14.399L16.399 15.601ZM12 10L12.601 9.39896C12.4416 9.23955 12.2254 9.15 12 9.15C11.7746 9.15 11.5584 9.23955 11.399 9.39896L12 10ZM6.39896 14.399C6.06701 14.7309 6.06701 15.2691 6.39896 15.601C6.73091 15.933 7.2691 15.933 7.60104 15.601L6.39896 14.399ZM17.601 14.399L12.601 9.39896L11.399 10.601L16.399 15.601L17.601 14.399ZM11.399 9.39896L6.39896 14.399L7.60104 15.601L12.601 10.601L11.399 9.39896Z" fill="white"/>
</svg>
