<svg width="28" height="28" viewBox="0 0 28 28" fill="none" xmlns="http://www.w3.org/2000/svg">
<rect x="10" y="10" width="8" height="8" rx="2" stroke="white" stroke-width="2"/>
<rect x="5" y="5" width="18" height="18" rx="5" stroke="white" stroke-width="2"/>
<path d="M9 2L9 5" stroke="white" stroke-width="2" stroke-linecap="round"/>
<path d="M9 23L9 26" stroke="white" stroke-width="2" stroke-linecap="round"/>
<path d="M5 9L2 9" stroke="white" stroke-width="2" stroke-linecap="round"/>
<path d="M26 9L23 9" stroke="white" stroke-width="2" stroke-linecap="round"/>
<path d="M14 2L14 5" stroke="white" stroke-width="2" stroke-linecap="round"/>
<path d="M14 23L14 26" stroke="white" stroke-width="2" stroke-linecap="round"/>
<path d="M5 14L2 14" stroke="white" stroke-width="2" stroke-linecap="round"/>
<path d="M26 14L23 14" stroke="white" stroke-width="2" stroke-linecap="round"/>
<path d="M19 2L19 5" stroke="white" stroke-width="2" stroke-linecap="round"/>
<path d="M19 23L19 26" stroke="white" stroke-width="2" stroke-linecap="round"/>
<path d="M5 19L2 19" stroke="white" stroke-width="2" stroke-linecap="round"/>
<path d="M26 19L23 19" stroke="white" stroke-width="2" stroke-linecap="round"/>
</svg>
