<svg width="28" height="28" viewBox="0 0 28 28" fill="none" xmlns="http://www.w3.org/2000/svg">
<path fill-rule="evenodd" clip-rule="evenodd" d="M5.51472 5.51472C7.6852 3.34424 10.6866 2 14 2C17.3134 2 20.3148 3.34424 22.4853 5.51472C24.6558 7.6852 26 10.6866 26 14C26 17.3134 24.6558 20.3148 22.4853 22.4853C20.3148 24.6558 17.3134 26 14 26C10.6866 26 7.6852 24.6558 5.51472 22.4853C3.34424 20.3148 2 17.3134 2 14C2 10.6866 3.34424 7.6852 5.51472 5.51472ZM14 4C11.2383 4 8.73967 5.11819 6.92893 6.92893C5.11819 8.73967 4 11.2383 4 14C4 16.7617 5.11819 19.2603 6.92893 21.0711C8.73967 22.8818 11.2383 24 14 24C16.7617 24 19.2603 22.8818 21.0711 21.0711C22.8818 19.2603 24 16.7617 24 14C24 11.2383 22.8818 8.73967 21.0711 6.92893C19.2603 5.11819 16.7617 4 14 4Z" fill="white"/>
<path fill-rule="evenodd" clip-rule="evenodd" d="M8.34315 8.34315C9.78977 6.89653 11.7911 6 14 6C14.5523 6 15 6.44772 15 7C15 7.55228 14.5523 8 14 8C12.3429 8 10.8442 8.67048 9.75736 9.75736C8.67048 10.8442 8 12.3429 8 14C8 14.5523 7.55228 15 7 15C6.44772 15 6 14.5523 6 14C6 11.7911 6.89653 9.78977 8.34315 8.34315ZM21 13C21.5523 13 22 13.4477 22 14C22 16.2089 21.1035 18.2102 19.6569 19.6569C18.2102 21.1035 16.2089 22 14 22C13.4477 22 13 21.5523 13 21C13 20.4477 13.4477 20 14 20C15.6571 20 17.1558 19.3295 18.2426 18.2426C19.3295 17.1558 20 15.6571 20 14C20 13.4477 20.4477 13 21 13Z" fill="white"/>
<path fill-rule="evenodd" clip-rule="evenodd" d="M11.1716 11.1716C11.8943 10.4488 12.8957 10 14 10C15.1043 10 16.1057 10.4488 16.8284 11.1716C17.5512 11.8943 18 12.8957 18 14C18 15.1043 17.5512 16.1057 16.8284 16.8284C16.1057 17.5512 15.1043 18 14 18C12.8957 18 11.8943 17.5512 11.1716 16.8284C10.4488 16.1057 10 15.1043 10 14C10 12.8957 10.4488 11.8943 11.1716 11.1716ZM14 12C13.4474 12 12.9488 12.2228 12.5858 12.5858C12.2228 12.9488 12 13.4474 12 14C12 14.5526 12.2228 15.0512 12.5858 15.4142C12.9488 15.7772 13.4474 16 14 16C14.5526 16 15.0512 15.7772 15.4142 15.4142C15.7772 15.0512 16 14.5526 16 14C16 13.4474 15.7772 12.9488 15.4142 12.5858C15.0512 12.2228 14.5526 12 14 12Z" fill="white"/>
</svg>
