<svg width="32" height="32" viewBox="0 0 32 32" fill="none" xmlns="http://www.w3.org/2000/svg">
<path fill-rule="evenodd" clip-rule="evenodd" d="M3.99994 9C3.44765 9 2.99994 9.44772 2.99994 10C2.99994 10.5523 3.44765 11 3.99994 11H24.9999C25.5522 11 25.9999 10.5523 25.9999 10C25.9999 9.44772 25.5522 9 24.9999 9H3.99994ZM2.99994 16C2.99994 15.4477 3.44765 15 3.99994 15H16.9999C17.5522 15 17.9999 15.4477 17.9999 16C17.9999 16.5523 17.5522 17 16.9999 17H3.99994C3.44765 17 2.99994 16.5523 2.99994 16ZM21.9999 16C22.5522 16 22.9999 16.4477 22.9999 17V21H26.9999C27.5522 21 27.9999 21.4477 27.9999 22C27.9999 22.5523 27.5522 23 26.9999 23H22.9999V27C22.9999 27.5523 22.5522 28 21.9999 28C21.4477 28 20.9999 27.5523 20.9999 27V23H16.9999C16.4477 23 15.9999 22.5523 15.9999 22C15.9999 21.4477 16.4477 21 16.9999 21H20.9999V17C20.9999 16.4477 21.4477 16 21.9999 16ZM2.99994 22C2.99994 21.4477 3.44765 21 3.99994 21H11.9999C12.5522 21 12.9999 21.4477 12.9999 22C12.9999 22.5523 12.5522 23 11.9999 23H3.99994C3.44765 23 2.99994 22.5523 2.99994 22Z" fill="white"/>
</svg>
