<svg width="22" height="22" viewBox="0 0 22 22" fill="none" xmlns="http://www.w3.org/2000/svg">
<path fill-rule="evenodd" clip-rule="evenodd" d="M2.74999 11C2.74999 6.44364 6.44364 2.74999 11 2.74999C15.5563 2.74999 19.25 6.44364 19.25 11C19.25 15.5563 15.5563 19.25 11 19.25C6.44364 19.25 2.74999 15.5563 2.74999 11ZM11 1.24999C5.61521 1.24999 1.24999 5.61522 1.24999 11C1.24999 16.3848 5.61521 20.75 11 20.75C16.3848 20.75 20.75 16.3848 20.75 11C20.75 5.61522 16.3848 1.24999 11 1.24999ZM11 6.24999C11.4142 6.24999 11.75 6.58577 11.75 6.99999V10.25H15C15.4142 10.25 15.75 10.5858 15.75 11C15.75 11.4142 15.4142 11.75 15 11.75H11.75V15C11.75 15.4142 11.4142 15.75 11 15.75C10.5858 15.75 10.25 15.4142 10.25 15V11.75H6.99998C6.58577 11.75 6.24998 11.4142 6.24998 11C6.24998 10.5858 6.58577 10.25 6.99998 10.25H10.25V6.99999C10.25 6.58577 10.5858 6.24999 11 6.24999Z" fill="white"/>
</svg>
