<svg width="22" height="22" viewBox="0 0 22 22" fill="none" xmlns="http://www.w3.org/2000/svg">
<path d="M14 11L14.601 11.601C14.7604 11.4416 14.85 11.2254 14.85 11C14.85 10.7746 14.7604 10.5584 14.601 10.399L14 11ZM8.60104 4.39896C8.2691 4.06701 7.7309 4.06701 7.39896 4.39896C7.06701 4.7309 7.06701 5.2691 7.39896 5.60104L8.60104 4.39896ZM7.39896 16.399C7.06701 16.7309 7.06701 17.2691 7.39896 17.601C7.7309 17.933 8.2691 17.933 8.60104 17.601L7.39896 16.399ZM14.601 10.399L8.60104 4.39896L7.39896 5.60104L13.399 11.601L14.601 10.399ZM13.399 10.399L7.39896 16.399L8.60104 17.601L14.601 11.601L13.399 10.399Z" fill="white"/>
</svg>
